<?xml version="1.0" encoding="UTF-8" standalone="no"?>
<svg
   xmlns:dc="http://purl.org/dc/elements/1.1/"
   xmlns:cc="http://creativecommons.org/ns#"
   xmlns:rdf="http://www.w3.org/1999/02/22-rdf-syntax-ns#"
   xmlns:svg="http://www.w3.org/2000/svg"
   xmlns="http://www.w3.org/2000/svg"
   xmlns:sodipodi="http://sodipodi.sourceforge.net/DTD/sodipodi-0.dtd"
   xmlns:inkscape="http://www.inkscape.org/namespaces/inkscape"
   t="1693671596365"
   class="icon"
   viewBox="0 0 1024 1024"
   version="1.1"
   p-id="4038"
   width="200"
   height="200"
   id="svg839"
   sodipodi:docname="pay-paypal-logo.svg"
   inkscape:version="1.0.2 (e86c8708, 2021-01-15)">
  <metadata
     id="metadata845">
    <rdf:RDF>
      <cc:Work
         rdf:about="">
        <dc:format>image/svg+xml</dc:format>
        <dc:type
           rdf:resource="http://purl.org/dc/dcmitype/StillImage" />
      </cc:Work>
    </rdf:RDF>
  </metadata>
  <defs
     id="defs843" />
  <sodipodi:namedview
     pagecolor="#ffffff"
     bordercolor="#666666"
     borderopacity="1"
     objecttolerance="10"
     gridtolerance="10"
     guidetolerance="10"
     inkscape:pageopacity="0"
     inkscape:pageshadow="2"
     inkscape:window-width="1642"
     inkscape:window-height="783"
     id="namedview841"
     showgrid="false"
     inkscape:zoom="2.08"
     inkscape:cx="100"
     inkscape:cy="100"
     inkscape:window-x="0"
     inkscape:window-y="25"
     inkscape:window-maximized="0"
     inkscape:current-layer="svg839" />
  <path
     d="m 467.5389,288.50269 h 242.12888 c 130.06106,0 178.93217,67.51887 171.38576,166.85234 -12.46409,163.7883 -108.97588,254.35165 -236.99661,254.35165 h -64.62731 c -17.87067,0 -29.34516,11.88919 -34.11978,44.21752 l -27.71786,187.76851 c -1.80613,12.18276 -8.04711,19.35663 -17.4533,20.21897 H 348.31636 c -14.42144,0 -19.36674,-11.21034 -15.6293,-35.50245 l 92.72069,-602.27566 c 3.70168,-24.14534 16.57707,-35.63088 42.14903,-35.63088 z"
     fill="#009de2"
     p-id="4039"
     id="path833"
     sodipodi:nodetypes="cscsscccscccc" />
  <path
     d="m 316.18153,81.23077 h 242.37923 c 68.2958,0 149.22936,2.275092 203.39541,51.28131 36.17627,32.73198 55.14959,84.89397 50.78626,140.90895 C 797.82845,463.26281 687.97288,569.64172 538.71119,569.64172 H 419.16677 c -20.35028,0 -33.83367,13.81569 -39.57395,51.28132 L 346.24199,838.6347 c -2.1459,14.12759 -8.13654,22.45736 -19.02697,23.44812 H 177.91413 c -16.55918,0 -22.44253,-12.99004 -18.11496,-41.15348 L 267.30869,122.54939 c 4.29179,-27.998323 19.22367,-41.31862 48.87284,-41.31862 z"
     fill="#113984"
     p-id="4040"
     id="path835"
     sodipodi:nodetypes="ssccsscccsccs" />
  <path
     d="m 383.07991,598.97941 42.32784,-274.84584 c 3.70168,-24.14534 16.57707,-35.63088 42.14904,-35.63088 h 242.11099 c 40.09173,0 72.45984,6.42163 97.83508,18.25578 C 783.18268,475.73912 677.44393,569.64172 537.13753,569.64172 H 417.64676 c -15.73659,0 -27.48539,8.25638 -34.54897,29.33769 z"
     fill="#172c70"
     p-id="4041"
     id="path837"
     sodipodi:nodetypes="ccsscsscc" />
</svg>
